<?xml version="1.0" standalone="no"?>
<!DOCTYPE svg PUBLIC "-//W3C//DTD SVG 20010904//EN"
 "http://www.w3.org/TR/2001/REC-SVG-20010904/DTD/svg10.dtd">
<svg version="1.0" xmlns="http://www.w3.org/2000/svg"
 width="200.000000pt" height="200.000000pt" viewBox="0 0 200.000000 200.000000"
 preserveAspectRatio="xMidYMid meet">
<metadata>
Created by potrace 1.15, written by Peter Selinger 2001-2017
</metadata>
<g transform="translate(0.000000,200.000000) scale(0.100000,-0.100000)"
fill="#000000" stroke="none">
<path d="M1816 1772 c-12 -52 -42 -66 -114 -51 -84 18 -128 1 -159 -61 -41
-80 -21 -163 55 -232 65 -59 144 -91 100 -41 -29 33 -69 123 -70 158 -2 49 16
65 71 65 58 0 102 26 124 73 18 37 20 70 8 102 -7 17 -9 16 -15 -13z"/>
<path d="M172 1717 c-39 -40 -72 -77 -72 -82 0 -6 67 -78 150 -160 l150 -150
80 80 80 80 -152 152 c-84 84 -155 153 -158 153 -3 0 -38 -33 -78 -73z"/>
<path d="M1743 1468 c58 -132 63 -160 35 -195 -16 -20 -34 -16 -121 23 -68 31
-87 36 -134 32 -61 -5 -95 -26 -136 -85 -56 -79 -46 -208 23 -287 49 -56 106
-153 125 -211 15 -48 19 -55 28 -40 17 32 1 148 -32 224 -42 95 -39 142 14
177 24 16 28 15 84 -5 97 -35 155 -26 212 36 67 72 79 162 30 230 -46 63 -146
142 -128 101z"/>
<path d="M507 1372 l-77 -77 500 -500 500 -500 80 80 80 80 -497 497 c-274
274 -500 498 -503 498 -3 0 -40 -35 -83 -78z"/>
<path d="M1624 978 c44 -156 44 -189 -4 -274 -47 -80 -35 -170 30 -229 l21
-19 -6 27 c-14 54 4 115 49 171 60 73 66 87 66 151 0 85 -31 130 -119 175
l-44 22 7 -24z"/>
<path d="M1531 346 l-73 -73 38 -32 c43 -35 107 -44 118 -16 3 8 15 15 26 15
11 0 20 1 21 3 0 1 3 31 5 66 4 56 2 67 -17 87 -13 13 -27 24 -33 24 -7 0 -44
-33 -85 -74z"/>
</g>
</svg>
